<?xml version="1.0" encoding="utf-8"?>
<!-- Generator: Adobe Illustrator 26.0.2, SVG Export Plug-In . SVG Version: 6.00 Build 0)  -->
<svg version="1.1" id="Layer_1" xmlns="http://www.w3.org/2000/svg" xmlns:xlink="http://www.w3.org/1999/xlink" x="0px" y="0px"
	 viewBox="0 0 576.52 633.03" style="enable-background:new 0 0 576.52 633.03;" xml:space="preserve">
<g>
	<path d="M576.48,631.18c-0.14-6.57-0.69-13.12-1.02-19.68c-0.72-14.17-2.84-28.2-4.37-42.29c-2.38-21.85-4.95-43.68-7.41-65.51
		c-2.48-21.95-4.97-43.89-7.45-65.83c-2.66-23.55-5.38-47.09-8.06-70.64c-2.92-25.58-5.83-51.16-8.73-76.74
		c-2.7-23.87-5.43-47.74-8.21-71.6c-2.37-20.33-4.56-40.68-7.14-60.99c-0.7-5.55-1.06-5.83-6.72-5.84
		c-21.76-0.02-43.53-0.08-65.3,0.06c-4.58,0.03-7.38-1.64-9.37-5.79c-7.27-15.16-14.97-30.11-22.31-45.24
		c-11.06-22.78-22.67-45.31-33.83-68.05c-1.92-3.92-4.6-5.39-8.7-5.88c-30.47-3.66-60.93-7.44-91.39-11.23
		c-24.04-3-48.13-5.68-72.1-9.27c-3.51-0.52-6.42,0.17-9.02,2.95c-7.08,7.53-14.16,15.07-21.26,22.59
		c-11.18,11.81-22.48,23.51-33.48,35.49c-1.3,1.42-2.04,2.93-2.34,4.83c-1.74,10.96-3.3,21.95-5.02,32.91
		c-2.16,13.84-4.07,27.72-6.38,41.54c-0.66,3.92-1.9,4.86-5.85,5.06c-1.18,0.05-2.37,0.02-3.55,0.02
		c-21.45,0.01-42.89-0.01-64.34,0.02c-5.41,0-5.8,0.3-6.5,5.72c-2.13,16.34-3.89,32.73-5.8,49.1c-2.34,20.01-4.57,40.03-6.86,60.04
		c-1.81,15.84-3.64,31.68-5.44,47.52c-2.09,18.41-4.2,36.82-6.29,55.23c-1.79,15.73-3.59,31.46-5.38,47.2
		c-2.07,18.19-4.09,36.39-6.19,54.59c-1.82,15.84-3.62,31.68-5.41,47.52c-1.87,16.59-3.85,33.17-5.6,49.78
		C8.38,580.91,6.59,593,5.82,605.2c-0.46,7.33-0.55,14.69-1.28,22.01v1.62c0,4.2,0,4.2,4.2,4.2h567.43
		C576.63,632.48,576.5,631.81,576.48,631.18z M374.41,153.66c-30.71,0.01-61.43,0.01-92.14,0.01h-90.84c-5.38,0-5.56,0.01-6.15-5.42
		c-1.29-11.88-2.36-23.78-3.56-35.68c-0.73-7.28-1.45-14.57-2.33-21.83c-0.28-2.32,0.22-4.15,1.66-5.98
		c12.55-16.04,25.05-32.11,37.53-48.2c3.92-5.04,5.2-5.61,11.22-3.45c23.22,8.35,46.41,16.78,69.6,25.21
		c21.77,7.91,43.51,15.91,65.32,23.73c2.87,1.03,4.04,2.67,4.46,5.53c3.01,20.69,6.12,41.37,9.18,62.05
		C378.93,153.43,378.71,153.66,374.41,153.66z"/>
</g>
</svg>
